<svg width="490.00002" height="490.00002" xmlns="http://www.w3.org/2000/svg">

 <metadata id="metadata5532">image/svg+xml</metadata>
 <g>
  <title>background</title>
  <rect fill="none" id="canvas_background" height="402" width="582" y="-1" x="-1"/>
 </g>
 <g>
  <title>Layer 1</title>
  <g id="layer1">
   <text font-style="normal" font-weight="bold" font-size="30px" font-family="'Swis721 BT'" text-anchor="start" fill="#000000" stroke-width="1px" id="text6449" y="593.237717" x="483.661053" xml:space="preserve"/>
   <g id="g4316">
    <path fill="#ffffff" fill-rule="evenodd" stroke="#ffffff" stroke-width="0.653333px" d="m14.747943,173.396587l-0.38565,72.82951l5.9394,79.53697l445.27351,9.84808l15.28404,-85.66868l-8.74783,-81.7423l-457.36347,5.19642z" id="path6195"/>
    <g font-style="normal" font-weight="bold" font-size="208.023178px" font-family="'Swis721 BT'" text-anchor="start" fill="#ce1126" stroke-width="1px" transform="matrix(0.64806522,0,0,0.66739357,-0.61184872,364.81893) " id="text6109">
     <path fill="#ce1126" d="m72.015971,-85.008422l35.15592,0l0,-54.50207c0,-10.60919 -0.41605,-30.99546 -1.45616,-60.74277l28.08313,115.24484l38.06824,0l28.7072,-115.24484c-1.04012,24.54673 -1.45617,40.77254 -1.45617,48.88545l0,66.35939l34.9479,0l0,-149.56867l-52.62987,0l-18.51406,68.64765c-3.95244,14.3536 -7.28081,27.66709 -9.98511,40.56452c-2.28826,-11.85732 -5.20058,-24.13069 -8.52895,-36.40405l-19.7622,-72.80812l-52.62987,0l0,149.56867z" id="path6205"/>
     <path fill="#ce1126" d="m246.166551,-85.008422l35.15591,0l0,-54.50207c0,-10.60919 -0.41604,-30.99546 -1.45616,-60.74277l28.08313,115.24484l38.06824,0l28.7072,-115.24484c-1.04012,24.54673 -1.45616,40.77254 -1.45616,48.88545l0,66.35939l34.94789,0l0,-149.56867l-52.62986,0l-18.51406,68.64765c-3.95244,14.3536 -7.28082,27.66709 -9.98512,40.56452c-2.28825,-11.85732 -5.20058,-24.13069 -8.52895,-36.40405l-19.7622,-72.80812l-52.62986,0l0,149.56867z" id="path6207"/>
     <path fill="#ce1126" d="m420.317121,-85.008422l58.87056,0c49.30149,0 73.6402,-24.75476 73.6402,-74.68032c0,-48.05336 -24.13068,-74.88835 -68.64764,-74.88835l-63.86312,0l0,149.56867zm38.48429,-31.4115l0,-86.53764l20.80232,0c23.71464,0 34.32382,13.31348 34.32382,43.26882c0,29.74731 -10.60918,43.26882 -34.32382,43.26882l-20.80232,0z" id="path6209"/>
     <path fill="#ce1126" d="m595.384311,-234.577092l-53.878,149.56867l39.73242,0l8.52895,-27.45906l49.92557,0l9.15302,27.45906l41.18859,0l-52.83789,-149.56867l-41.81266,0zm3.53639,91.11416l16.01779,-51.58975l16.64185,51.58975l-32.65964,0z" id="path6211"/>
    </g>
    <path fill="#ce1126" fill-rule="evenodd" stroke-width="1px" d="m60.629453,224.287687l2.89844,83.79691l85.21447,0l-17.59056,-89.75073l-25.96497,89.75073l-25.42756,-85.39684l-19.12982,1.59993z" id="path6202"/>
    <path fill="#ffffff" fill-rule="evenodd" stroke-width="1px" d="m123.156073,256.155957l5.42953,0l-0.15359,51.92889l-16.55448,2.15424l0.25978,-23.87274l2.0549,0l0,-4.40369l2.89555,0l6.06831,-25.8067z" id="path6107"/>
    <path fill="#ffffff" fill-rule="evenodd" stroke="#ffffff" stroke-width="0.065766" stroke-miterlimit="4" d="m63.362393,309.227927l0.37391,-35.37677l-0.09431,-2.34747l-0.17516,-0.18384l0.0135,-0.1697l-0.05389,-0.0283l2.57346,-2.47475l0.30989,0.0566l-0.02692,-0.53738l0.06737,-0.0566l-0.06737,-0.29697l0.2021,-0.15556l0.02692,-0.28283l0.10779,-0.11313l0.09432,-4.93535l-0.5659,-0.46666l-0.0539,-0.14142l-0.18863,-0.0707l0.02692,-0.21211l-0.24252,-0.14142l0.84884,-0.2404l0,-0.0848l-0.12127,-0.0848l0.14821,-0.11313l-0.01346,-0.45253l-0.72757,-0.14141l-0.02692,-0.24041l-0.3099,-0.19798l0.95663,-0.93333l0.3099,0.0848l0.09431,-0.21212c0,0 -0.2251,-0.13791 -0.22905,-0.25454c-0.0026,-0.067 0.12126,-0.15556 0.12126,-0.15556l0.16168,-0.80607l-0.08084,-0.099l0.10779,-0.0566l-0.04038,-0.1697l0.16169,0.0283l0,0.0566l0.10778,0.1697l-0.0539,0.0707l0.16168,0.77778c0,0 0.18322,0.12946 0.17516,0.22626c-0.0078,0.0932 -0.20211,0.18384 -0.20211,0.18384l0.1078,0.26869l0.16168,0.0424c0,0 0.0093,-0.81309 0.10778,-1.20202c0.13688,-0.54027 0.35246,-1.07099 0.66021,-1.52727c0.26612,-0.39457 0.61498,-0.73408 0.99705,-1.00405c0.53867,-0.38061 1.16993,-0.46161 1.77851,-0.83434c0.039,-0.0239 -0.01189,-0.10222 0.01346,-0.14142c0.08237,-0.12732 0.39074,-0.21211 0.39074,-0.21211l0,-1.85253l0.04038,-0.12727l-0.01346,-0.35354l0.59283,-0.38182l-0.0089,-0.24141l-0.01816,-0.0838l-0.06181,-0.21798c-0.0088,-0.12766 -0.18058,-0.0466 -0.18074,-0.12141c-0.00019,-0.0955 0.22906,-0.15556 0.22906,-0.15556l0.0539,-0.21212l0.06736,-0.099l-0.04038,-1.32929l0.08084,-0.12727l-0.02692,-0.82021l-0.09432,-0.0848l0.04038,-0.26868c0,0 0.03234,-0.0822 0.06736,-0.0849c0.06024,-0.005 0.11387,0.0678 0.13474,0.12727c0.02345,0.0669 -0.02692,0.21212 -0.02692,0.21212l-0.04038,0.15556l0,0.77778l0.06736,0.15555l0,1.28687l0.06737,0.12727l-0.04038,0.21212c0,0 0.22859,0.0123 0.22905,0.099c0.00028,0.0512 -0.1348,0.0601 -0.1348,0.0601l-0.07409,0.35l-0.06396,0.0884c0,0 0.0067,0.15909 0.01346,0.15555c0.0539,0.0142 0.51536,0.37828 0.51536,0.37828l0.08084,2.34748c0,0 0.30595,0.13685 0.40422,0.26869c0.02626,0.0352 0.00062,0.11059 0.04038,0.12727c0.76419,0.32254 1.31544,0.55837 1.90072,0.9699c0.29955,0.21062 0.57249,0.46834 0.80747,0.75535c0.22001,0.26874 0.41157,0.56891 0.55241,0.89091c0.09369,0.21421 0.14345,0.44792 0.18864,0.67879c0.07464,0.38144 0.13473,1.1596 0.13473,1.1596l0.0539,0.0848l0.1482,-0.18383l0.0539,-0.19798c0,0 -0.18203,-0.18498 -0.16168,-0.29697c0.01078,-0.0593 0.13473,-0.11313 0.13473,-0.11313l0.14821,-0.7495l-0.0539,-0.11313l0.0539,-0.0848l-0.02692,-0.15555l0.09431,-0.0566l0.12126,0.12727l-0.06736,0.0707l0.04038,0.099l0.06737,0.0566l-0.09431,0.0424l0.17515,0.7495c0,0 0.09977,0.0496 0.10779,0.099c0.01993,0.12277 -0.17516,0.32525 -0.17516,0.32525l0.17516,0.19798l-0.08084,0.14142l0.36379,-0.0707l0.79494,1.00404l-0.22906,0.1697l-0.0539,0.2404l-0.72757,0.099l0,0.29697l0.13473,0.21212l-0.06736,0.099l0.87579,0.25454l-0.30989,0.21213l-0.02692,0.29697l-0.64674,0.50909l0.04038,4.96363l0.14821,0.29697l0.04038,0.11313l0.17516,0.25455l-0.02692,0.31111l0,0.48081l0.40421,-0.11313l2.55998,2.68687l-0.12127,0.33939l-0.13473,0l-0.0539,0.33939l-0.04038,0.21213l0.0539,3.50706c0.09395,4.59104 0.31743,29.83531 0.43454,34.4258l-17.87944,-0.81679z" id="path6224"/>
    <path fill="#0038a8" stroke-width="3.000675" stroke-linecap="round" stroke-linejoin="round" stroke-miterlimit="4" stroke-dashoffset="0" id="path6226-1" d="m16.571663,193.859907a234.21976,234.21977 0 0 1 228.2059,-182.45683a234.21976,234.21977 0 0 1 228.55204,182.02306"/>
    <path fill="#ce1126" stroke-width="3.000675" stroke-linecap="round" stroke-linejoin="round" stroke-miterlimit="4" stroke-dashoffset="0" id="path6226-1-9" d="m-462.91042,-888.04863a234.21976,234.21977 0 0 1 222.05162,-157.52217a234.21976,234.21977 0 0 1 221.04485,158.93183" transform="translate(0.0000133514404296875,-562.3621826171875) scale(-1) "/>
    <ellipse fill="none" stroke="#0038a8" stroke-width="22.805872" stroke-linecap="round" stroke-linejoin="round" stroke-miterlimit="4" stroke-dashoffset="0" id="path6226" cx="244.999993" cy="244.999997" rx="233.59706" ry="233.59708"/>
    <g fill="#fcd116" id="g6270" transform="matrix(0.65333331,0,0,0.65333331,21.608762,406.64809) ">
     <path fill="#fcd116" fill-rule="evenodd" stroke-width="0.2" stroke-miterlimit="4" id="path6260" d="m129.46835,-366.342244l19.2686,-19.44544l90.8633,11.13693l0.3535,-7.6014l-80.4334,-13.96535l9.8995,-10.78339l71.0643,18.20801l3.3587,-10.25305l-62.4022,-16.26346l-6.3639,-13.78858l13.435,-6.71751l57.4524,30.22882l6.7176,-10.25306l-60.4577,-36.06244l0.1768,-14.67247l64.3467,45.43161l5.1265,-7.60139l-70.0035,-54.80078l-0.1769,-30.05204l27.4005,1.06066l57.0989,69.47324l5.1264,-4.77297l-46.4922,-65.58415l15.026,0.17677l36.7696,63.10928l10.253,-5.65685l-31.2895,-59.04341l4.9498,-12.9047l13.2582,4.59619l20.5062,65.05382l10.7833,-3.7123l-17.5009,-68.58937l10.9602,-11.13693l13.2582,78.48886l7.0711,-0.70711l-10.4298,-88.21157l23.5113,-22.62742l21.0365,21.92031l-8.4854,89.27223l6.5407,0.53033l13.2584,-80.07984l10.9601,12.55114l-16.6171,69.47325l9.8995,3.35875l19.6222,-64.87704l14.4958,-5.65686l4.4194,12.9047l-31.4663,60.28086l9.3692,4.59619l38.3606,-63.63961l15.3795,0.35355l-48.26,66.11449l6.1872,5.48007l57.8059,-71.41778l25.9862,-0.17678l-0.1767,28.8146l-69.6501,56.39177l5.4801,7.95495l64.7003,-46.84583l-0.3536,16.26346l-61.3415,36.06244l6.1872,10.25306l59.5738,-30.22882l12.1975,6.18718l-6.5408,12.37437l-62.2253,17.5009l1.7677,9.89949l72.4785,-17.32412l10.4298,9.8995l-80.787,14.49569l0.7072,6.36396l91.747,-8.13173l18.0313,17.14734l-423.2034,0.17678z"/>
     <path fill="#fcd116" stroke-width="0.275284" stroke-linecap="round" stroke-linejoin="round" stroke-miterlimit="4" stroke-dashoffset="0" d="m235.75236,-370.343694a104.86236,104.86236 0 0 1 104.76593,-102.33322a104.86236,104.86236 0 0 1 104.89452,102.20141l-104.82859,2.66093l-104.83186,-2.52912z" id="path6262"/>
    </g>
    <g font-style="normal" font-weight="bold" font-size="29.790535px" font-family="'Swis721 BT'" text-anchor="start" fill="#ffffff" stroke-width="1px" transform="matrix(0.64877163,0,0,0.65792709,-0.0000046284997,364.81893) " id="text6274">
     <path fill="#ffffff" d="m59.259141,-269.193904l0,-21.4265l6.51668,0l4.26202,16.30625l4.20384,-16.30625l6.54577,0l0,21.4265l-4.13111,0l0,-17.28084l-4.3493,17.28084l-4.50931,0l-4.40748,-17.28084l0,17.28084l-4.13111,0z" id="path6279"/>
     <path fill="#ffffff" d="m85.267671,-269.193904l0,-21.4265l15.54984,0l0,3.72382l-11.20054,0l0,4.56749l10.2405,0l0,3.66564l-10.2405,0l0,5.51299l11.72421,0l0,3.95656l-16.07351,0z" id="path6281"/>
     <path fill="#ffffff" d="m109.137921,-269.193904l0,-17.60086l-6.35667,0l0,-3.82564l17.07719,0l0,3.82564l-6.31304,0l0,17.60086l-4.40748,0z" id="path6283"/>
     <path fill="#ffffff" d="m126.796961,-281.252674l5.17843,0q1.68735,0 2.47285,-0.68367q0.80003,-0.68367 0.80003,-2.15283q0,-1.39643 -0.77094,-2.1092q-0.77095,-0.7273 -2.2983,-0.7273l-5.38207,0l0,5.673zm-4.40749,12.05877l0,-21.4265l10.38596,0q3.50562,0 5.19298,1.49826q1.68735,1.49825 1.68735,4.58204q0,1.96373 -0.82913,3.27288q-0.81459,1.30916 -2.35648,1.78918q1.39643,0.49457 1.97828,1.5128q0.59639,1.01823 0.68367,3.17106l0.0873,2.53104q0,0.0291 0,0.0873q0.0436,1.9201 0.82913,2.32739l0,0.65458l-4.82933,0q-0.23274,-0.45094 -0.36365,-1.10551q-0.11637,-0.66913 -0.14546,-1.58553l-0.0582,-2.25466q-0.0727,-1.99282 -0.7564,-2.69104q-0.66912,-0.69821 -2.42921,-0.69821l-4.66931,0l0,8.33495l-4.40749,0l-0.00001,-0.00003z" id="path6285"/>
     <path fill="#ffffff" d="m147.248861,-279.885334q0,3.53471 1.57098,5.49845q1.57099,1.94918 4.39294,1.94918q2.85105,0 4.43658,-1.94918q1.58553,-1.96374 1.58553,-5.49845q0,-3.53472 -1.58553,-5.4839q-1.58553,-1.96374 -4.43658,-1.96374q-2.82195,0 -4.39294,1.94919q-1.57098,1.94919 -1.57098,5.49845zm-4.49477,0q0,-5.19298 2.82196,-8.23313q2.8365,-3.05469 7.63673,-3.05469q4.80023,0 7.63674,3.05469q2.85104,3.0547 2.85104,8.23313q0,5.17843 -2.85104,8.23312q-2.83651,3.0547 -7.63674,3.0547q-4.80023,0 -7.63673,-3.0547q-2.82196,-3.05469 -2.82196,-8.23312z" id="path6287"/>
     <path fill="#ffffff" d="m175.686601,-269.193904l0,-21.4265l6.51668,0l4.26202,16.30625l4.20384,-16.30625l6.54577,0l0,21.4265l-4.13111,0l0,-17.28084l-4.3493,17.28084l-4.50931,0l-4.40749,-17.28084l0,17.28084l-4.1311,0z" id="path6289"/>
     <path fill="#ffffff" d="m209.666421,-286.329284l-2.96742,9.12044l5.94938,0l-2.98196,-9.12044zm-2.56012,-4.29112l5.09115,0l7.72401,21.4265l-4.62568,0l-1.45461,-4.40749l-8.30586,0l-1.41098,4.40749l-4.64022,0l7.62219,-21.4265z" id="path6291"/>
     <path fill="#ffffff" d="m222.117931,-269.193904l0,-21.4265l4.61113,0l8.69861,14.72072l0,-14.72072l4.3493,0l0,21.4265l-4.55295,0l-8.75679,-14.72072l0,14.72072l-4.3493,0z" id="path6293"/>
     <path fill="#ffffff" d="m244.373561,-269.193904l0,-21.4265l4.40749,0l0,21.4265l-4.40749,0z" id="path6295"/>
     <path fill="#ffffff" d="m253.363091,-269.193904l0,-21.4265l4.40749,0l0,17.46994l10.45869,0l0,3.95656l-14.86618,0z" id="path6297"/>
     <path fill="#ffffff" d="m278.615231,-286.329284l-2.96742,9.12044l5.94938,0l-2.98196,-9.12044zm-2.56013,-4.29112l5.09116,0l7.72401,21.4265l-4.62568,0l-1.45461,-4.40749l-8.30586,0l-1.41098,4.40749l-4.64022,0l7.62218,-21.4265z" id="path6299"/>
     <path fill="#ffffff" d="m303.881901,-273.063184l3.53471,0q3.06924,0 4.43658,-1.60008q1.38189,-1.61462 1.38189,-5.22207q0,-3.5929 -1.28006,-5.28026q-1.28007,-1.68735 -4.0002,-1.68735l-4.07292,0l0,13.78976zm-4.32021,3.86928l0,-21.4265l8.39313,0q4.93115,0 7.34581,2.66195q2.42921,2.66195 2.42921,8.07312q0,2.93832 -0.90186,5.17843q-0.88732,2.24011 -2.58922,3.60745q-1.28006,1.01823 -2.90923,1.46916q-1.62917,0.43639 -4.56749,0.43639l-7.20035,0z" id="path6301"/>
     <path fill="#ffffff" d="m321.206371,-269.193904l0,-21.4265l15.54985,0l0,3.72382l-11.20055,0l0,4.56749l10.2405,0l0,3.66564l-10.2405,0l0,5.51299l11.72421,0l0,3.95656l-16.07351,0z" id="path6303"/>
     <path fill="#ffffff" d="m345.673031,-269.193904l-7.38945,-21.4265l4.88751,0l4.55295,16.02987l4.64022,-16.02987l4.82933,0l-7.30218,21.4265l-4.21838,0z" id="path6305"/>
     <path fill="#ffffff" d="m359.259141,-269.193904l0,-21.4265l15.54984,0l0,3.72382l-11.20054,0l0,4.56749l10.24049,0l0,3.66564l-10.24049,0l0,5.51299l11.7242,0l0,3.95656l-16.0735,0z" id="path6307"/>
     <path fill="#ffffff" d="m378.692791,-269.193904l0,-21.4265l4.40749,0l0,17.46994l10.45869,0l0,3.95656l-14.86618,0z" id="path6309"/>
     <path fill="#ffffff" d="m398.490121,-279.885334q0,3.53471 1.57099,5.49845q1.57098,1.94918 4.39294,1.94918q2.85104,0 4.43657,-1.94918q1.58554,-1.96374 1.58554,-5.49845q0,-3.53472 -1.58554,-5.4839q-1.58553,-1.96374 -4.43657,-1.96374q-2.82196,0 -4.39294,1.94919q-1.57099,1.94919 -1.57099,5.49845zm-4.49476,0q0,-5.19298 2.82195,-8.23313q2.8365,-3.05469 7.63674,-3.05469q4.80023,0 7.63673,3.05469q2.85105,3.0547 2.85105,8.23313q0,5.17843 -2.85105,8.23312q-2.8365,3.0547 -7.63673,3.0547q-4.80024,0 -7.63674,-3.0547q-2.82195,-3.05469 -2.82195,-8.23312z" id="path6311"/>
     <path fill="#ffffff" d="m422.869481,-280.699924l4.26203,0q1.73099,0 2.51648,-0.7273q0.78549,-0.74186 0.78549,-2.37103q0,-1.52735 -0.77094,-2.31284q-0.77095,-0.78549 -2.2983,-0.78549l-4.49476,0l0,6.19666zm-0.0291,3.88383l0,7.62219l-4.40749,0l0,-21.4265l9.52774,0q3.37471,0 5.1057,1.76009q1.74554,1.74554 1.74554,5.13479q0,3.31653 -1.7019,5.12025q-1.7019,1.78918 -4.85842,1.78918l-5.41117,0z" id="path6313"/>
     <path fill="#ffffff" d="m438.332041,-269.193904l0,-21.4265l6.51668,0l4.26203,16.30625l4.20384,-16.30625l6.54577,0l0,21.4265l-4.13111,0l0,-17.28084l-4.3493,17.28084l-4.50931,0l-4.40749,-17.28084l0,17.28084l-4.13111,0z" id="path6315"/>
     <path fill="#ffffff" d="m464.340591,-269.193904l0,-21.4265l15.54984,0l0,3.72382l-11.20054,0l0,4.56749l10.2405,0l0,3.66564l-10.2405,0l0,5.51299l11.7242,0l0,3.95656l-16.0735,0z" id="path6317"/>
     <path fill="#ffffff" d="m483.774271,-269.193904l0,-21.4265l4.61114,0l8.6986,14.72072l0,-14.72072l4.3493,0l0,21.4265l-4.55295,0l-8.75679,-14.72072l0,14.72072l-4.3493,0z" id="path6319"/>
     <path fill="#ffffff" d="m510.320991,-269.193904l0,-17.60086l-6.35667,0l0,-3.82564l17.07719,0l0,3.82564l-6.31303,0l0,17.60086l-4.40749,0z" id="path6321"/>
     <path fill="#ffffff" d="m540.038811,-286.329284l-2.96742,9.12044l5.94938,0l-2.98196,-9.12044zm-2.56012,-4.29112l5.09115,0l7.72401,21.4265l-4.62567,0l-1.45462,-4.40749l-8.30586,0l-1.41098,4.40749l-4.64022,0l7.62219,-21.4265z" id="path6323"/>
     <path fill="#ffffff" d="m551.864821,-290.678584l4.45113,0l0,13.44065q0,2.48739 0.98914,3.63654q0.98914,1.1346 3.14197,1.1346q2.18192,0 3.17106,-1.1346q1.00369,-1.1346 1.00369,-3.63654l0,-13.44065l4.40748,0l0,13.92067q0,3.94201 -2.21101,6.0512q-2.19647,2.1092 -6.34213,2.1092q-4.17475,0 -6.40031,-2.09465q-2.21102,-2.10919 -2.21102,-6.06575l0,-13.92067z" id="path6325"/>
     <path fill="#ffffff" d="m577.815161,-269.193904l0,-17.60086l-6.35667,0l0,-3.82564l17.07719,0l0,3.82564l-6.31303,0l0,17.60086l-4.40749,0z" id="path6327"/>
     <path fill="#ffffff" d="m591.066751,-269.193904l0,-21.4265l4.43658,0l0,7.98584l8.84407,0l0,-7.98584l4.43658,0l0,21.4265l-4.43658,0l0,-9.49865l-8.84407,0l0,9.49865l-4.43658,0z" id="path6329"/>
     <path fill="#ffffff" d="m616.798901,-279.885334q0,3.53471 1.57098,5.49845q1.57099,1.94918 4.39294,1.94918q2.85105,0 4.43658,-1.94918q1.58553,-1.96374 1.58553,-5.49845q0,-3.53472 -1.58553,-5.4839q-1.58553,-1.96374 -4.43658,-1.96374q-2.82195,0 -4.39294,1.94919q-1.57098,1.94919 -1.57098,5.49845zm-4.49477,0q0,-5.19298 2.82196,-8.23313q2.8365,-3.05469 7.63673,-3.05469q4.80024,0 7.63674,3.05469q2.85104,3.0547 2.85104,8.23313q0,5.17843 -2.85104,8.23312q-2.8365,3.0547 -7.63674,3.0547q-4.80023,0 -7.63673,-3.0547q-2.82196,-3.05469 -2.82196,-8.23312z" id="path6331"/>
     <path fill="#ffffff" d="m641.149171,-281.252674l5.17843,0q1.68735,0 2.47285,-0.68367q0.80003,-0.68367 0.80003,-2.15283q0,-1.39643 -0.77094,-2.1092q-0.77095,-0.7273 -2.29829,-0.7273l-5.38208,0l0,5.673zm-4.40749,12.05877l0,-21.4265l10.38596,0q3.50562,0 5.19298,1.49826q1.68735,1.49825 1.68735,4.58204q0,1.96373 -0.82913,3.27288q-0.81458,1.30916 -2.35648,1.78918q1.39643,0.49457 1.97828,1.5128q0.59639,1.01823 0.68367,3.17106l0.0873,2.53104q0,0.0291 0,0.0873q0.0436,1.9201 0.82913,2.32739l0,0.65458l-4.82933,0q-0.23274,-0.45094 -0.36365,-1.10551q-0.11637,-0.66913 -0.14546,-1.58553l-0.0582,-2.25466q-0.0727,-1.99282 -0.7564,-2.69104q-0.66912,-0.69821 -2.42921,-0.69821l-4.66931,0l0,8.33495l-4.40749,0l-0.00001,-0.00003z" id="path6333"/>
     <path fill="#ffffff" d="m658.182731,-269.193904l0,-21.4265l4.40749,0l0,21.4265l-4.40749,0z" id="path6335"/>
     <path fill="#ffffff" d="m671.608801,-269.193904l0,-17.60086l-6.35667,0l0,-3.82564l17.07719,0l0,3.82564l-6.31303,0l0,17.60086l-4.40749,0z" id="path6337"/>
     <path fill="#ffffff" d="m694.446311,-269.193904l-4.40748,0l0,-7.98585l-7.7822,-13.44065l5.39663,0l4.58204,9.23681l4.23293,-9.23681l5.03297,0l-7.05489,13.44065l0,7.98585z" id="path6339"/>
    </g>
    <g font-style="normal" font-weight="bold" font-size="29.4px" font-family="'Swis721 BT'" text-anchor="start" fill="#ffffff" stroke-width="1px" id="text6341">
     <path d="m255.463143,353.013427q-0.78955,1.22022 -2.06718,1.86621q-1.27764,0.63164 -2.97158,0.63164q-2.26817,0 -3.50274,-1.29199q-1.22021,-1.29199 -1.22021,-3.675q0,-2.21074 1.22021,-3.37354q1.23457,-1.16279 4.0626,-1.59345q0.64599,-0.10049 1.69394,-0.22969q2.65577,-0.34453 2.65577,-1.53603q0,-0.94747 -0.58858,-1.34942q-0.58857,-0.41631 -1.9667,-0.41631q-1.26328,0 -1.93799,0.50244q-0.6747,0.50245 -0.6747,1.43555l0,0.22969l-3.90469,0l0,-0.28711q0,-2.39736 1.69394,-3.76113q1.69395,-1.37813 4.67989,-1.37813q3.27304,0 5.01006,1.13408q1.75136,1.13409 1.75136,3.27305l0,8.87168q0,0.97617 0.20098,1.46426q0.20098,0.47373 0.67471,0.71777l0,0.70342l-4.34971,0q-0.21533,-0.40195 -0.33018,-0.89004q-0.11484,-0.48809 -0.1292,-1.04795zm-0.0718,-5.74219q-1.01924,0.47373 -2.3543,0.76084q-1.3207,0.28711 -1.36377,0.30147q-1.10537,0.31582 -1.55039,0.78955q-0.43066,0.47373 -0.43066,1.30635q0,0.86132 0.55986,1.37812q0.55986,0.50244 1.50732,0.50244q1.69395,0 2.65577,-0.94746q0.97617,-0.96181 0.97617,-2.61269l0,-1.47862z" id="path6787"/>
     <path d="m263.057193,354.951417l0,-15.6044l3.87597,0l0,2.67012q0.81827,-1.60781 1.90928,-2.3543q1.09102,-0.76084 2.59834,-0.76084q0.24404,0 0.37324,0.0144q0.14356,0 0.22969,0.0144l0.0144,4.23486l-1.39248,0q-1.7083,0 -2.56963,0.89004q-0.86133,0.89004 -0.86133,2.6414l0,8.2544l-4.17744,0l-0.00004,-0.00008z" id="path6789"/>
     <path d="m283.312753,353.013427q-0.78955,1.22022 -2.06718,1.86621q-1.27764,0.63164 -2.97159,0.63164q-2.26816,0 -3.50273,-1.29199q-1.22021,-1.29199 -1.22021,-3.675q0,-2.21074 1.22021,-3.37354q1.23457,-1.16279 4.0626,-1.59345q0.64599,-0.10049 1.69394,-0.22969q2.65576,-0.34453 2.65576,-1.53603q0,-0.94747 -0.58857,-1.34942q-0.58857,-0.41631 -1.9667,-0.41631q-1.26328,0 -1.93799,0.50244q-0.6747,0.50245 -0.6747,1.43555l0,0.22969l-3.90469,0l0,-0.28711q0,-2.39736 1.69394,-3.76113q1.69395,-1.37813 4.67989,-1.37813q3.27304,0 5.01006,1.13408q1.75136,1.13409 1.75136,3.27305l0,8.87168q0,0.97617 0.20098,1.46426q0.20098,0.47373 0.67471,0.71777l0,0.70342l-4.34971,0q-0.21533,-0.40195 -0.33018,-0.89004q-0.11484,-0.48809 -0.1292,-1.04795zm-0.0718,-5.74219q-1.01924,0.47373 -2.3543,0.76084q-1.3207,0.28711 -1.36377,0.30147q-1.10537,0.31582 -1.55039,0.78955q-0.43066,0.47373 -0.43066,1.30635q0,0.86132 0.55986,1.37812q0.55986,0.50244 1.50732,0.50244q1.69395,0 2.65576,-0.94746q0.97618,-0.96181 0.97618,-2.61269l0,-1.47862z" id="path6791"/>
     <path d="m290.906803,354.951417l0,-15.6044l4.0913,0l0,1.85186q0.87569,-1.13408 2.06719,-1.69395q1.19151,-0.57421 2.65576,-0.57421q2.58399,0 3.86162,1.34941q1.292,1.33506 1.292,4.03389l0,10.6374l-4.17744,0l0,-9.43154q0,-1.67959 -0.57422,-2.39737q-0.55987,-0.71777 -1.8375,-0.71777q-1.47862,0 -2.33994,0.89004q-0.86133,0.87568 -0.86133,2.39736l0,9.25928l-4.17744,0z" id="path6793"/>
     <path d="m311.894493,346.897997q0,2.19639 0.87569,3.37354q0.89003,1.17714 2.52656,1.17714q1.65088,0 2.5122,-1.17714q0.87569,-1.17715 0.87569,-3.43096q0,-2.13897 -0.9044,-3.30176q-0.89004,-1.17715 -2.54091,-1.17715q-1.59346,0 -2.46914,1.19151q-0.87569,1.1915 -0.87569,3.34482zm-3.77549,9.56074l4.56504,-0.0144q0.20098,0.78955 0.81826,1.17715q0.63164,0.38759 1.67959,0.38759q1.95235,0 2.72754,-0.83261q0.7752,-0.81827 0.7752,-3.04336l0,-1.39248q-0.66035,1.13408 -1.72266,1.67959q-1.04795,0.53115 -2.62705,0.53115q-3.029,0 -4.85215,-2.15332q-1.82314,-2.16768 -1.82314,-5.75654q0,-3.78985 1.78008,-6.01495q1.79443,-2.23945 4.82343,-2.23945q1.57911,0 2.68448,0.60293q1.11972,0.60293 1.82314,1.8375l0,-1.88057l3.96211,0l0,14.5708q0,2.45479 -0.45937,3.74678q-0.45938,1.29199 -1.56475,2.16768q-0.94746,0.73213 -2.41172,1.10537q-1.4499,0.3876 -3.31611,0.3876q-3.12949,0 -4.92393,-1.27764q-1.79443,-1.27764 -1.93799,-3.58887l0,0.00005z" id="path6795"/>
     <path d="m335.336973,353.013427q-0.78955,1.22022 -2.06719,1.86621q-1.27763,0.63164 -2.97158,0.63164q-2.26816,0 -3.50273,-1.29199q-1.22022,-1.29199 -1.22022,-3.675q0,-2.21074 1.22022,-3.37354q1.23457,-1.16279 4.06259,-1.59345q0.646,-0.10049 1.69395,-0.22969q2.65576,-0.34453 2.65576,-1.53603q0,-0.94747 -0.58857,-1.34942q-0.58858,-0.41631 -1.9667,-0.41631q-1.26328,0 -1.93799,0.50244q-0.67471,0.50245 -0.67471,1.43555l0,0.22969l-3.90469,0l0,-0.28711q0,-2.39736 1.69395,-3.76113q1.69394,-1.37813 4.67988,-1.37813q3.27305,0 5.01006,1.13408q1.75137,1.13409 1.75137,3.27305l0,8.87168q0,0.97617 0.20097,1.46426q0.20098,0.47373 0.67471,0.71777l0,0.70342l-4.34971,0q-0.21533,-0.40195 -0.33017,-0.89004q-0.11484,-0.48809 -0.1292,-1.04795zm-0.0718,-5.74219q-1.01924,0.47373 -2.35429,0.76084q-1.32071,0.28711 -1.36377,0.30147q-1.10538,0.31582 -1.55039,0.78955q-0.43067,0.47373 -0.43067,1.30635q0,0.86132 0.55986,1.37812q0.55987,0.50244 1.50733,0.50244q1.69394,0 2.65576,-0.94746q0.97617,-0.96181 0.97617,-2.61269l0,-1.47862z" id="path6797"/>
     <path d="m343.074573,354.951417l0,-21.14561l4.17744,0l0,21.14561l-4.17744,0z" id="path6799"/>
    </g>
    <g font-style="normal" font-weight="bold" font-size="29.4px" font-family="'Swis721 BT'" text-anchor="start" fill="#ffffff" stroke-width="1px" id="text6341-6">
     <path d="m255.383893,380.374147q-0.78955,1.22021 -2.06719,1.86621q-1.27763,0.63164 -2.97158,0.63164q-2.26816,0 -3.50273,-1.29199q-1.22022,-1.29199 -1.22022,-3.675q0,-2.21074 1.22022,-3.37354q1.23457,-1.16279 4.06259,-1.59345q0.646,-0.10049 1.69395,-0.22969q2.65576,-0.34453 2.65576,-1.53604q0,-0.94746 -0.58857,-1.34941q-0.58858,-0.41631 -1.9667,-0.41631q-1.26328,0 -1.93799,0.50244q-0.67471,0.50244 -0.67471,1.43555l0,0.22969l-3.90468,0l0,-0.28711q0,-2.39737 1.69394,-3.76114q1.69395,-1.37812 4.67988,-1.37812q3.27305,0 5.01006,1.13408q1.75137,1.13408 1.75137,3.27305l0,8.87168q0,0.97617 0.20098,1.46426q0.20097,0.47373 0.6747,0.71777l0,0.70342l-4.3497,0q-0.21534,-0.40196 -0.33018,-0.89004q-0.11484,-0.48809 -0.1292,-1.04795zm-0.0718,-5.74219q-1.01924,0.47373 -2.35429,0.76084q-1.32071,0.28711 -1.36377,0.30147q-1.10537,0.31582 -1.55039,0.78955q-0.43067,0.47373 -0.43067,1.30634q0,0.86133 0.55987,1.37813q0.55986,0.50244 1.50732,0.50244q1.69394,0 2.65576,-0.94746q0.97617,-0.96182 0.97617,-2.6127l0,-1.47861z" id="path6774"/>
     <path d="m269.911633,382.426977q-0.57422,0.0144 -1.37813,0.0431q-0.78955,0.0431 -1.00488,0.0431q-2.39737,0 -3.2874,-0.89004q-0.87569,-0.90439 -0.87569,-3.5458l0,-8.44101l-2.06719,0l0,-2.92852l2.06719,0l0,-4.26357l4.13438,0l0,4.26357l2.41172,0l0,2.92852l-2.41172,0l0,8.64199q0,0.61728 0.27275,0.81826q0.27275,0.18662 1.11973,0.18662l1.01924,0l0,3.14385l0,-0.00007z" id="path6776"/>
     <path d="m281.281163,380.374147q-0.78955,1.22021 -2.06719,1.86621q-1.27764,0.63164 -2.97158,0.63164q-2.26817,0 -3.50274,-1.29199q-1.22021,-1.29199 -1.22021,-3.675q0,-2.21074 1.22021,-3.37354q1.23457,-1.16279 4.0626,-1.59345q0.646,-0.10049 1.69395,-0.22969q2.65576,-0.34453 2.65576,-1.53604q0,-0.94746 -0.58858,-1.34941q-0.58857,-0.41631 -1.9667,-0.41631q-1.26328,0 -1.93798,0.50244q-0.67471,0.50244 -0.67471,1.43555l0,0.22969l-3.90469,0l0,-0.28711q0,-2.39737 1.69395,-3.76114q1.69394,-1.37812 4.67988,-1.37812q3.27305,0 5.01006,1.13408q1.75137,1.13408 1.75137,3.27305l0,8.87168q0,0.97617 0.20097,1.46426q0.20098,0.47373 0.67471,0.71777l0,0.70342l-4.34971,0q-0.21533,-0.40196 -0.33017,-0.89004q-0.11485,-0.48809 -0.1292,-1.04795zm-0.0718,-5.74219q-1.01924,0.47373 -2.3543,0.76084q-1.3207,0.28711 -1.36377,0.30147q-1.10537,0.31582 -1.55039,0.78955q-0.43066,0.47373 -0.43066,1.30634q0,0.86133 0.55986,1.37813q0.55987,0.50244 1.50733,0.50244q1.69394,0 2.65576,-0.94746q0.97617,-0.96182 0.97617,-2.6127l0,-1.47861z" id="path6778"/>
     <path d="m299.900203,374.603247q0,-2.3543 -0.89004,-3.58887q-0.89004,-1.24892 -2.58399,-1.24892q-1.66523,0 -2.54091,1.23457q-0.86133,1.23457 -0.86133,3.60322q0,2.21074 0.90439,3.4166q0.91875,1.20586 2.58399,1.20586q1.5791,0 2.48349,-1.23457q0.9044,-1.23457 0.9044,-3.38789zm-10.93887,13.96787l0,-21.86338l3.97647,0l0,2.11026q0.90439,-1.37813 2.00976,-2.00977q1.11973,-0.63164 2.62705,-0.63164q2.88545,0 4.67989,2.28252q1.79443,2.26816 1.79443,5.97187q0,3.74678 -1.79443,6.08672q-1.79444,2.32559 -4.62247,2.32559q-1.49296,0 -2.67011,-0.63164q-1.1628,-0.63164 -1.93799,-1.8375l0,8.19697l-4.0626,0z" id="path6780"/>
     <path d="m315.849123,380.374147q-0.78955,1.22021 -2.06718,1.86621q-1.27764,0.63164 -2.97159,0.63164q-2.26816,0 -3.50273,-1.29199q-1.22022,-1.29199 -1.22022,-3.675q0,-2.21074 1.22022,-3.37354q1.23457,-1.16279 4.0626,-1.59345q0.64599,-0.10049 1.69394,-0.22969q2.65576,-0.34453 2.65576,-1.53604q0,-0.94746 -0.58857,-1.34941q-0.58857,-0.41631 -1.9667,-0.41631q-1.26328,0 -1.93799,0.50244q-0.6747,0.50244 -0.6747,1.43555l0,0.22969l-3.90469,0l0,-0.28711q0,-2.39737 1.69394,-3.76114q1.69395,-1.37812 4.67989,-1.37812q3.27304,0 5.01005,1.13408q1.75137,1.13408 1.75137,3.27305l0,8.87168q0,0.97617 0.20098,1.46426q0.20097,0.47373 0.67471,0.71777l0,0.70342l-4.34971,0q-0.21533,-0.40196 -0.33018,-0.89004q-0.11484,-0.48809 -0.1292,-1.04795zm-0.0718,-5.74219q-1.01924,0.47373 -2.3543,0.76084q-1.3207,0.28711 -1.36377,0.30147q-1.10537,0.31582 -1.55039,0.78955q-0.43067,0.47373 -0.43067,1.30634q0,0.86133 0.55987,1.37813q0.55986,0.50244 1.50732,0.50244q1.69395,0 2.65576,-0.94746q0.97618,-0.96182 0.97618,-2.6127l0,-1.47861z" id="path6782"/>
     <path d="m330.376863,382.426977q-0.57422,0.0144 -1.37813,0.0431q-0.78955,0.0431 -1.00488,0.0431q-2.39736,0 -3.2874,-0.89004q-0.87569,-0.90439 -0.87569,-3.5458l0,-8.44101l-2.06718,0l0,-2.92852l2.06718,0l0,-4.26357l4.13438,0l0,4.26357l2.41172,0l0,2.92852l-2.41172,0l0,8.64199q0,0.61728 0.27275,0.81826q0.27276,0.18662 1.11973,0.18662l1.01924,0l0,3.14385l0,-0.00007z" id="path6784"/>
    </g>
    <path fill="#ffffff" d="m243.761483,394.872337l0,-3.8042l4.17744,0l0,3.8042l-4.17744,0zm0,17.34141l0,-15.6044l4.17744,0l0,15.6044l-4.17744,0z" id="path6751"/>
    <path fill="#ffffff" d="m250.781303,407.131907l4.16309,0q0.0574,1.19151 0.86132,1.78008q0.80391,0.57422 2.41172,0.57422q1.22022,0 1.88057,-0.40195q0.67471,-0.41631 0.67471,-1.1628q0,-1.0623 -2.49786,-1.59345q-1.01923,-0.21534 -1.62216,-0.37325q-3.04336,-0.77519 -4.23487,-1.8375q-1.17715,-1.0623 -1.17715,-2.87109q0,-2.39736 1.72266,-3.78984q1.73701,-1.40684 4.69424,-1.40684q3.12949,0 4.90957,1.39248q1.79443,1.39248 1.90928,3.91904l-4.0626,0q-0.0431,-0.99052 -0.76084,-1.53603q-0.70342,-0.54551 -1.9667,-0.54551q-1.1915,0 -1.78008,0.35889q-0.57422,0.35888 -0.57422,1.07666q0,0.9331 3.11514,1.65088q0.71777,0.15791 1.13408,0.25839q3.11514,0.73213 4.24922,1.76573q1.14844,1.03359 1.14844,2.91416q0,2.65576 -1.88057,4.04824q-1.86621,1.39248 -5.44072,1.39248q-3.22998,0 -5.05313,-1.4499q-1.82314,-1.4499 -1.82314,-3.99082l0,-0.17227z" id="path6753"/>
    <path fill="#ffffff" d="m267.821243,394.872337l0,-3.8042l4.17744,0l0,3.8042l-4.17744,0zm0,17.34141l0,-15.6044l4.17744,0l0,15.6044l-4.17744,0z" id="path6755"/>
    <path fill="#ffffff" d="m286.741753,404.504857q0,-2.3543 -0.89004,-3.58887q-0.89004,-1.24892 -2.58399,-1.24892q-1.66523,0 -2.54091,1.23457q-0.86133,1.23457 -0.86133,3.60322q0,2.21074 0.90439,3.4166q0.91875,1.20586 2.58399,1.20586q1.5791,0 2.48349,-1.23457q0.9044,-1.23457 0.9044,-3.38789zm-10.93887,13.96787l0,-21.86338l3.97646,0l0,2.11026q0.9044,-1.37813 2.00977,-2.00977q1.11973,-0.63164 2.62705,-0.63164q2.88545,0 4.67988,2.28252q1.79444,2.26816 1.79444,5.97188q0,3.74677 -1.79444,6.08671q-1.79443,2.32559 -4.62246,2.32559q-1.49297,0 -2.67011,-0.63164q-1.1628,-0.63164 -1.93799,-1.8375l0,8.19697l-4.0626,0z" id="path6757"/>
    <path stroke="null" style="vector-effect: non-scaling-stroke;" id="path6759"/>
    <path fill="#ffffff" d="m293.872413,412.213747l0,-21.14561l4.17744,0l0,21.14561l-4.17744,0z" id="path6761"/>
    <path fill="#ffffff" d="m301.911483,394.872337l0,-3.8042l4.17744,0l0,3.8042l-4.17744,0zm0,17.34141l0,-15.6044l4.17744,0l0,15.6044l-4.17744,0z" id="path6763"/>
    <path fill="#ffffff" d="m309.806983,412.213747l0,-15.6044l4.09131,0l0,1.85186q0.87568,-1.13408 2.06719,-1.69395q1.1915,-0.57422 2.65576,-0.57422q2.58398,0 3.86162,1.34942q1.29199,1.33506 1.29199,4.03389l0,10.6374l-4.17744,0l0,-9.43155q0,-1.67958 -0.57422,-2.39736q-0.55986,-0.71777 -1.8375,-0.71777q-1.47861,0 -2.33994,0.89004q-0.86133,0.87568 -0.86133,2.39736l0,9.25928l-4.17744,0z" id="path6765"/>
    <path fill="#ffffff" d="m336.321533,410.275757q-0.78955,1.22021 -2.06719,1.86621q-1.27764,0.63164 -2.97158,0.63164q-2.26817,0 -3.50274,-1.29199q-1.22021,-1.29199 -1.22021,-3.675q0,-2.21074 1.22021,-3.37354q1.23457,-1.16279 4.0626,-1.59345q0.646,-0.10049 1.69395,-0.22969q2.65576,-0.34453 2.65576,-1.53604q0,-0.94746 -0.58858,-1.34941q-0.58857,-0.41631 -1.96669,-0.41631q-1.26329,0 -1.93799,0.50244q-0.67471,0.50244 -0.67471,1.43555l0,0.22969l-3.90469,0l0,-0.28711q0,-2.39737 1.69395,-3.76113q1.69394,-1.37813 4.67988,-1.37813q3.27305,0 5.01006,1.13408q1.75137,1.13408 1.75137,3.27305l0,8.87168q0,0.97617 0.20097,1.46426q0.20098,0.47373 0.67471,0.71777l0,0.70342l-4.34971,0q-0.21533,-0.40196 -0.33017,-0.89004q-0.11485,-0.48809 -0.1292,-1.04795zm-0.0718,-5.74219q-1.01924,0.47373 -2.3543,0.76084q-1.3207,0.28711 -1.36377,0.30147q-1.10537,0.31582 -1.55039,0.78955q-0.43066,0.47373 -0.43066,1.30635q0,0.86132 0.55986,1.37812q0.55987,0.50244 1.50733,0.50244q1.69394,0 2.65576,-0.94746q0.97617,-0.96182 0.97617,-2.61269l0,-1.47862z" id="path6767"/>
    <path fill="#ffffff" style="vector-effect: non-scaling-stroke;" d="m358.256693,391.068137l0,21.14561l-3.96211,0l0,-2.11026q-0.90439,1.36377 -2.03848,2.00977q-1.11972,0.63164 -2.6414,0.63164q-2.88545,0 -4.67988,-2.28252q-1.78008,-2.28252 -1.78008,-5.98623q0,-3.73242 1.78008,-6.05801q1.79443,-2.33994 4.62246,-2.33994q1.50732,0 2.68447,0.63164q1.1915,0.63164 1.9667,1.8375l0,-7.4792l4.04824,0zm-10.92451,13.23574q0,2.36866 0.89004,3.61758q0.89004,1.23457 2.56963,1.23457q1.66523,0 2.54091,-1.23457q0.87569,-1.23457 0.87569,-3.61758q0,-2.21074 -0.91875,-3.40224q-0.91875,-1.20586 -2.58399,-1.20586q-1.56474,0 -2.46914,1.23457q-0.90439,1.22021 -0.90439,3.37353z" id="path6769"/>
    <path fill="#ffffff" d="m365.448783,404.390017q0,2.32558 0.94746,3.58886q0.96182,1.26329 2.72754,1.26329q1.73701,0 2.68447,-1.26329q0.96182,-1.26328 0.96182,-3.58886q0,-2.31123 -0.94746,-3.56016q-0.94746,-1.26328 -2.69883,-1.26328q-1.76572,0 -2.72754,1.26328q-0.94746,1.24893 -0.94746,3.56016zm-4.23486,0q0,-3.89033 2.11025,-6.11543q2.11025,-2.2251 5.79961,-2.2251q3.675,0 5.78525,2.2251q2.12461,2.2251 2.12461,6.11543q0,3.90468 -2.12461,6.12978q-2.11025,2.2251 -5.78525,2.2251q-3.68936,0 -5.79961,-2.2251q-2.11025,-2.2251 -2.11025,-6.12978z" id="path6771"/>
    <g font-style="normal" font-weight="bold" font-size="29.4px" font-family="'Swis721 BT'" text-anchor="start" fill="#ffffff" stroke-width="1px" id="text6341-62">
     <path d="m244.104943,440.769017l0,-21.14558l4.06259,0l0,11.09678l4.967,-5.55557l5.02441,0l-5.44072,5.78526l5.7709,9.81911l-5.01006,0l-3.73243,-6.64656l-1.5791,1.7083l0,4.93826l-4.06259,0z" id="path6744"/>
     <path d="m263.771933,432.945317q0,2.32558 0.94746,3.58886q0.96181,1.26324 2.72754,1.26324q1.73701,0 2.68447,-1.26324q0.96182,-1.26328 0.96182,-3.58886q0,-2.31124 -0.94747,-3.56016q-0.94746,-1.26328 -2.69882,-1.26328q-1.76573,0 -2.72754,1.26328q-0.94746,1.24892 -0.94746,3.56016zm-4.23487,0q0,-3.89034 2.11026,-6.11543q2.11025,-2.2251 5.79961,-2.2251q3.675,0 5.78525,2.2251q2.12461,2.22509 2.12461,6.11543q0,3.90468 -2.12461,6.1298q-2.11025,2.2251 -5.78525,2.2251q-3.68936,0 -5.79961,-2.2251q-2.11026,-2.22512 -2.11026,-6.1298z" id="path6746"/>
     <path d="m278.357083,440.769017l0,-4.32097l4.321,0l0,4.32097l-4.321,0z" id="path6748"/>
    </g>
    <g font-style="normal" font-weight="bold" font-size="32.666664px" font-family="'Swis721 BT'" text-anchor="start" fill="#ffffff" stroke-width="1px" id="text6409">
     <path fill="#ffffff" d="m219.566413,355.469237l0,-23.49511l7.14583,0l4.67351,17.88053l4.6097,-17.88053l7.17773,0l0,23.49511l-4.52995,0l0,-18.94922l-4.7692,18.94922l-4.94466,0l-4.83301,-18.94922l0,18.94922l-4.52995,0z" id="path6741"/>
    </g>
    <g font-style="normal" font-weight="bold" font-size="32.666664px" font-family="'Swis721 BT'" text-anchor="start" fill="#ffffff" stroke-width="1px" id="text6409-2">
     <path fill="#ffffff" d="m218.913083,383.562557l0,-23.49511l7.14583,0l4.6735,17.88053l4.6097,-17.88053l7.17773,0l0,23.49511l-4.52994,0l0,-18.94921l-4.76921,18.94921l-4.94466,0l-4.83301,-18.94921l0,18.94921l-4.52994,0z" id="path6738"/>
    </g>
    <g font-style="normal" font-weight="bold" font-size="32.666664px" font-family="'Swis721 BT'" text-anchor="start" fill="#ffffff" stroke-width="1px" id="text6409-9">
     <path fill="#ffffff" d="m225.622013,407.978907l3.87598,0q3.36556,0 4.86491,-1.75456q1.5153,-1.77051 1.5153,-5.72624q0,-3.93978 -1.40365,-5.79004q-1.40364,-1.85026 -4.38639,-1.85026l-4.46615,0l0,15.1211zm-4.7373,4.24283l0,-23.49511l9.20345,0q5.40723,0 8.05501,2.91894q2.66374,2.91895 2.66374,8.85254q0,3.22201 -0.98893,5.67839q-0.97299,2.45638 -2.8392,3.95573q-1.40364,1.11653 -3.1901,1.611q-1.78646,0.47851 -5.00846,0.47851l-7.89551,0z" id="path6735"/>
    </g>
    <g font-style="normal" font-weight="bold" font-size="32.666664px" font-family="'Swis721 BT'" text-anchor="start" fill="#ffffff" stroke-width="1px" id="text6409-9-0">
     <path fill="#ffffff" d="m229.769473,422.234827l-3.25391,10.00097l6.52377,0l-3.26986,-10.00097zm-2.80729,-4.70541l5.58268,0l8.46973,23.4951l-5.07227,0l-1.59505,-4.83299l-9.10775,0l-1.5472,4.83299l-5.08821,0l8.35807,-23.4951z" id="path6732"/>
    </g>
   </g>
  </g>
 </g>
</svg>